<?xml version="1.0" encoding="UTF-8" standalone="no"?>
        <svg 
    viewBox="3.1494140625 -85.78592936197916 447.4365234375 57.09804958767361"
    width="444.287109375"
    height="142.88397894965277"
   xmlns="http://www.w3.org/2000/svg"
   xmlns:svg="http://www.w3.org/2000/svg">
   <path d="M31.64-54.42L30.32-58.67L94.34-58.67L104.37-68.55L121.66-52.37Q120.04-50.76 115.65-50.54L115.65-50.54Q110.82-48.19 103.78-45.89Q96.75-43.58 90.16-41.97L90.16-41.97Q89.58-39.70 85.47-38.96L85.47-38.96L85.47-30.32L117.77-30.32L128.10-43.95Q128.10-43.95 130.00-42.44Q131.91-40.94 134.88-38.60Q137.84-36.25 141.10-33.54Q144.36-30.83 147.00-28.49L147.00-28.49Q146.34-26.07 142.68-26.07L142.68-26.07L85.47-26.07L85.47-9.16Q85.47-2.20 83.72 2.64Q81.96 7.47 76.32 10.25Q70.68 13.04 59.11 13.92L59.11 13.92Q58.74 9.08 58.01 5.64Q57.28 2.20 55.37-0.15L55.37-0.15Q53.54-2.27 50.83-3.92Q48.12-5.57 42.11-6.59L42.11-6.59L42.11-8.57Q42.11-8.57 44.60-8.39Q47.09-8.20 50.54-8.02Q53.98-7.84 57.02-7.65Q60.06-7.47 61.23-7.47L61.23-7.47Q63.72-7.47 63.72-9.74L63.72-9.74L63.72-26.07L4.98-26.07L3.74-30.32L63.72-30.32L63.72-44.82L84.16-43.21Q86.50-45.70 88.95-48.67Q91.41-51.64 93.31-54.42L93.31-54.42L31.64-54.42ZM63.72-105.76L63.72-128.39L90.89-126.12Q90.82-124.58 89.72-123.49Q88.62-122.39 85.47-121.80L85.47-121.80L85.47-105.76L115.36-105.76L125.83-119.38Q125.83-119.38 127.77-117.88Q129.71-116.38 132.68-114.04Q135.64-111.69 138.94-109.02Q142.24-106.35 144.87-103.93L144.87-103.93Q144.21-101.51 140.55-101.51L140.55-101.51L91.48-101.51Q97.85-95.43 107.12-91.04Q116.38-86.65 126.71-83.75Q137.04-80.86 146.56-79.17L146.56-79.17L146.26-77.56Q140.26-75.88 136.34-70.86Q132.42-65.84 130.66-58.08L130.66-58.08Q116.02-65.33 105.03-75.81Q94.04-86.28 87.60-101.51L87.60-101.51L85.47-101.51L85.47-68.70Q85.47-68.04 82.76-66.91Q80.05-65.77 75.92-64.82Q71.78-63.87 67.53-63.87L67.53-63.87L63.72-63.87L63.72-85.77Q52.51-76.03 37.32-68.63Q22.12-61.23 4.17-56.25L4.17-56.25L3.15-57.93Q18.82-65.92 31.20-77.67Q43.58-89.43 51.12-101.51L51.12-101.51L6.74-101.51L5.57-105.76L63.72-105.76ZM254.88-74.41L254.88-92.07L195.92-92.07L195.92-74.41L254.88-74.41ZM195.92-96.31L254.88-96.31L254.88-113.53L195.92-113.53L195.92-96.31ZM173.73-61.23L173.73-117.77L173.73-126.64L197.24-117.77L253.34-117.77L263.09-128.54L283.37-113.23Q282.64-112.35 281.25-111.44Q279.86-110.52 277.51-109.94L277.51-109.94L277.51-67.68Q277.44-67.09 274.29-65.95Q271.14-64.82 266.78-63.83Q262.43-62.84 258.76-62.84L258.76-62.84L254.88-62.84L254.88-70.17L195.92-70.17L195.92-68.12Q195.92-67.02 193.07-65.41Q190.21-63.79 185.82-62.51Q181.42-61.23 176.88-61.23L176.88-61.23L173.73-61.23ZM173.07-10.33L173.07-61.08L198.93-59.11Q198.78-57.86 197.97-56.91Q197.17-55.96 194.68-55.66L194.68-55.66L194.68-37.50L203.83-37.50L213.57-51.42Q213.57-51.42 216.47-48.93Q219.36-46.44 223.28-42.88Q227.20-39.33 230.27-36.18L230.27-36.18L230.27-61.38L256.35-59.25Q256.13-56.03 251.51-55.22L251.51-55.22L251.51-35.52Q256.86-40.50 261.73-45.92Q266.60-51.34 269.38-55.66L269.38-55.66L292.82-38.09Q291.58-36.99 289.20-36.66Q286.82-36.33 282.71-37.35L282.71-37.35Q276.71-35.30 268.69-32.96Q260.67-30.62 251.51-28.78L251.51-28.78L251.51-10.99Q251.51-9.23 252.39-8.61Q253.27-7.98 256.05-7.98L256.05-7.98L267.11-7.98Q269.60-7.98 271.98-7.98Q274.37-7.98 275.68-8.13L275.68-8.13Q277.08-8.20 278.25-8.50Q279.42-8.79 280.37-9.59L280.37-9.59Q281.62-11.06 283.48-14.50Q285.35-17.94 287.40-22.63L287.40-22.63L288.87-22.63L289.53-9.30Q293.55-7.62 294.98-5.64Q296.41-3.66 296.41-0.73L296.41-0.73Q296.41 3.59 293.48 6.37Q290.55 9.16 283.63 10.51Q276.71 11.87 264.62 11.87L264.62 11.87L250.78 11.87Q242.43 11.87 237.96 10.40Q233.50 8.94 231.88 5.16Q230.27 1.39 230.27-5.57L230.27-5.57L230.27-12.45Q220.90-8.06 206.14-2.42Q191.38 3.22 169.19 10.62L169.19 10.62Q167.65 13.55 164.58 14.28L164.58 14.28L154.98-9.59L173.07-10.33ZM194.68-11.72L230.27-14.28L230.27-35.08Q229.54-33.33 226.46-33.33L226.46-33.33L194.68-33.33L194.68-11.72ZM405.32-12.45L406.20-14.28Q420.56-12.45 429.09-9.52Q437.62-6.59 441.58-3.11Q445.53 0.37 445.97 3.70Q446.41 7.03 444.43 9.63Q442.46 12.23 439.09 13.51Q435.72 14.79 432.09 14.10Q428.47 13.40 425.68 10.03L425.68 10.03Q423.49 5.35 418.32-0.92Q413.16-7.18 405.32-12.45L405.32-12.45ZM343.07-126.42L343.07-126.42L364.23-108.47L365.84-107.08Q364.38-105.83 361.67-105.62Q358.96-105.40 355.08-106.64L355.08-106.64Q352.66-105.98 349.91-105.40Q347.17-104.81 344.09-104.22L344.09-104.22L344.24-80.13L352.66-92.43Q352.66-92.43 354.57-90.67Q356.47-88.92 359.25-86.28Q362.04-83.64 364.67-81.01L364.67-81.01L391.63-81.01L391.63-93.16L366.43-93.16L365.26-97.34L391.63-97.34L391.63-108.47L364.23-108.47L362.99-112.65L391.63-112.65L391.63-126.27L416.67-124.37Q416.46-122.75 415.39-121.66Q414.33-120.56 411.18-119.97L411.18-119.97L411.18-112.65L421.51-112.65L430.37-124.80Q430.37-124.80 433.08-122.50Q435.79-120.19 439.45-116.93Q443.12-113.67 445.97-110.82L445.97-110.82Q445.31-108.47 441.87-108.47L441.87-108.47L411.18-108.47L411.18-97.34L420.26-97.34L428.10-106.93Q428.10-106.93 430.55-105.10Q433.01-103.27 436.34-100.60Q439.67-97.92 442.38-95.58L442.38-95.58Q441.94-93.16 438.43-93.16L438.43-93.16L411.18-93.16L411.18-81.01L424.07-81.01L432.42-92.07Q432.42-92.07 435.02-89.94Q437.62-87.82 441.14-84.81Q444.65-81.81 447.44-79.17L447.44-79.17Q447.22-77.93 446.12-77.38Q445.02-76.83 443.55-76.83L443.55-76.83L426.27-76.83L442.82-64.38Q442.09-63.43 440.73-62.62Q439.38-61.82 437.26-61.38L437.26-61.38L437.26-18.31Q437.11-17.72 434.25-16.59Q431.40-15.45 427.51-14.54Q423.63-13.62 420.26-13.62L420.26-13.62L416.82-13.62L416.82-17.72L387.01-17.72L387.01-16.19L386.72-15.60L407.08-1.68Q406.20-0.51 404.88-0.29Q403.56-0.07 401.07-0.59L401.07-0.59Q390.09 5.05 377.38 8.75Q364.67 12.45 352.22 14.28L352.22 14.28L351.12 12.16Q360.94 7.40 369.40 0.70Q377.86-6.01 385.03-14.14L385.03-14.14Q382.91-12.74 378.92-11.46Q374.93-10.18 370.83-10.18L370.83-10.18L368.12-10.18L368.12-76.32L387.89-68.55L415.36-68.55L422.97-76.83L365.99-76.83Q365.11-75.88 363.13-75.88L363.13-75.88L344.09-75.88L344.09-65.26Q353.25-62.26 358.12-58.30Q362.99-54.35 364.60-50.32Q366.21-46.29 365.30-42.88Q364.38-39.48 361.78-37.54Q359.18-35.60 355.70-35.82Q352.22-36.04 348.78-39.33L348.78-39.33Q348.78-44.82 347.39-50.46Q346.00-56.10 344.09-61.08L344.09-61.08L344.09 8.72Q344.09 9.59 339.73 11.94Q335.38 14.28 328.20 14.28L328.20 14.28L324.61 14.28L324.61-34.06Q320.21-27.83 314.98-22.23Q309.74-16.63 303.88-11.72L303.88-11.72L302.27-13.18Q307.32-21.68 311.28-32.12Q315.23-42.55 318.05-53.80Q320.87-65.04 322.63-75.88L322.63-75.88L305.27-75.88L304.03-80.13L324.61-80.13L324.61-101.22Q319.34-100.56 313.92-100.12Q308.50-99.68 303.30-99.46L303.30-99.46L303.00-100.93Q310.11-104.15 317.80-108.65Q325.49-113.16 332.15-117.85Q338.82-122.53 343.07-126.42ZM416.82-53.10L416.82-64.38L387.01-64.38L387.01-53.10L416.82-53.10ZM416.82-48.93L387.01-48.93L387.01-37.50L416.82-37.50L416.82-48.93ZM416.82-33.33L387.01-33.33L387.01-21.90L416.82-21.90L416.82-33.33Z"/>
    </svg>
        