<svg width="201" height="201" version="1.1" xmlns="http://www.w3.org/2000/svg" xmlns:xlink="http://www.w3.org/1999/xlink"><path d="M101.91 68.79L101.91 68.79L99.50 65.78Q74.17 68.39 59.09 71.41L59.09 71.41L57.49 75.63L56.08 76.03Q49.65 71.20 47.64 57.94L47.64 57.94Q45.83 46.88 44.82 44.07L44.82 44.07Q38.99 25.58 36.78 20.95L36.78 20.95Q36.58 20.55 36.18 19.95L36.18 19.95Q36.18 18.34 37.39 17.14L37.39 17.14Q42.21 17.74 48.24 19.35L48.24 19.35L94.87 10.50Q104.12 8.69 112.96 8.69L112.96 8.69Q125.22 14.92 129.44 19.15L129.44 19.15L130.25 20.55Q130.65 23.17 124.62 28.79L124.62 28.79Q122.61 30.60 121.81 31.41L121.81 31.41Q118.19 36.43 113.97 51.91L113.97 51.91Q110.75 62.76 107.74 66.58L107.74 66.58Q105.73 68.79 101.91 68.79ZM51.86 26.18L51.86 26.18L54.87 43.67L54.87 43.87L74.97 38.24Q92.86 34.22 96.88 41.26L96.88 41.26Q96.88 42.26 95.48 43.27L95.48 43.27L56.08 50.10L59.30 65.38L88.44 59.35Q97.48 57.94 99.90 59.14L99.90 59.14Q106.73 35.23 107.74 23.17L107.74 23.17Q108.14 20.55 107.74 19.75L107.74 19.75Q106.33 16.93 99.50 17.54L99.50 17.54Q98.89 17.54 98.49 17.54L98.49 17.54Q69.14 20.15 51.86 26.18ZM87.44 72.61L87.44 72.61Q98.09 75.22 103.52 82.26L103.52 82.26Q103.52 85.27 101.10 96.33L101.10 96.33Q100.10 100.95 100.10 104.37L100.10 104.37L101.10 104.37L121.00 91.10Q127.84 85.88 132.06 80.45L132.06 80.45Q132.06 78.04 133.26 77.84L133.26 77.84Q138.29 76.83 144.72 87.28L144.72 87.28Q145.73 88.69 146.33 89.90L146.33 89.90Q146.73 92.91 143.11 93.92L143.11 93.92Q141.10 94.32 140.70 94.52L140.70 94.52L100.10 109.39L99.50 110.00Q99.50 129.09 100.90 134.12L100.90 134.12Q103.92 144.17 116.78 146.18L116.78 146.18Q121.20 146.98 127.23 146.98L127.23 146.98Q140.30 146.98 143.11 146.38L143.11 146.38Q146.53 145.57 148.14 143.97L148.14 143.97Q152.16 140.15 156.18 125.68L156.18 125.68Q157.78 119.44 158.99 116.63L158.99 116.63L159.80 116.03L160.80 116.43Q162.21 119.85 163.21 130.90L163.21 130.90Q163.41 133.11 163.61 134.72L163.61 134.72L167.03 147.38Q167.23 148.59 167.23 149.39L167.23 149.39Q167.23 155.83 152.76 159.24L152.76 159.24Q134.07 163.66 115.58 158.64L115.58 158.64L107.54 155.83Q96.68 150.60 93.26 141.76L93.26 141.76Q89.24 131.71 89.85 109.60L89.85 109.60Q90.45 94.12 89.45 87.49L89.45 87.49L86.03 77.44Q85.43 74.22 87.44 72.61ZM74.17 101.15L74.17 101.15L72.16 102.56Q53.67 106.98 47.44 107.18L47.44 107.18Q43.82 107.38 40.40 106.98L40.40 106.98Q39.40 112.41 39.80 129.29L39.80 129.29Q39.80 130.90 39.80 132.31L39.80 132.31L41.00 133.51L67.74 123.46Q70.75 122.46 71.76 122.66L71.76 122.66Q70.75 125.68 63.72 129.49L63.72 129.49Q61.71 130.50 60.70 131.30L60.70 131.30L34.97 149.19Q29.35 153.61 24.92 157.43L24.92 157.43Q20.30 157.43 18.49 150.00L18.49 150.00Q17.89 146.58 18.49 144.17L18.49 144.17Q30.35 133.31 31.16 112.01L31.16 112.01Q31.36 104.17 29.75 97.33L29.75 97.33Q28.54 91.71 24.32 84.47L24.32 84.47Q24.32 82.66 25.13 82.06L25.13 82.06Q34.97 82.06 40.80 88.09L40.80 88.09L40.00 101.76L40.00 101.96Q40.60 101.96 54.47 98.54L54.47 98.54Q73.97 93.72 74.17 101.15Z" stroke="#000" fill="black" /></svg>