<svg width="201" height="201" version="1.1" xmlns="http://www.w3.org/2000/svg" xmlns:xlink="http://www.w3.org/1999/xlink"><path d="M174.07 91.48L174.07 91.48L172.86 92.69Q157.78 96.50 140.70 96.50L140.70 96.50Q127.23 89.87 107.33 70.58L107.33 70.58L93.06 57.11L92.06 80.42Q91.25 89.07 89.04 89.07L89.04 89.07L88.04 88.67Q83.01 83.44 84.02 67.76L84.02 67.76Q84.42 61.73 84.42 59.92L84.42 59.92Q47.44 99.92 24.72 102.53L24.72 102.53L21.91 102.13Q21.31 101.93 20.70 101.53L20.70 101.53Q23.72 98.92 35.38 91.68L35.38 91.68Q36.98 90.68 38.19 89.87L38.19 89.87Q66.13 70.98 77.59 52.08L77.59 52.08Q75.58 52.08 62.91 54.29L62.91 54.29Q49.25 56.71 43.22 50.07L43.22 50.07Q42.81 49.87 42.41 49.47L42.41 49.47Q42.41 48.06 44.62 47.26L44.62 47.26L84.22 43.84L84.82 43.44L83.42 29.57Q82.61 25.75 81.00 22.74L81.00 22.74Q80.20 17.11 87.44 19.72L87.44 19.72Q94.27 22.34 98.49 26.76L98.49 26.76Q98.29 28.97 94.87 39.42L94.87 39.42L94.27 41.83Q97.28 41.63 112.16 38.42L112.16 38.42Q128.84 35.00 135.27 40.83L135.27 40.83Q135.68 41.03 135.88 41.43L135.88 41.43Q136.68 42.23 136.68 43.84L136.68 43.84L134.87 45.45Q109.55 47.06 94.07 49.47L94.07 49.47Q93.47 49.87 93.47 51.08L93.47 51.08Q111.56 65.95 126.23 73.99L126.23 73.99Q129.44 75.60 131.66 76.40L131.66 76.40L162.21 87.06Q172.66 90.47 173.26 90.88L173.26 90.88Q173.46 91.08 174.07 91.48ZM170.85 131.28L170.85 131.28Q168.64 133.09 165.02 133.09L165.02 133.09L134.47 132.28L134.27 132.28L97.69 133.49L98.89 162.03Q98.49 182.73 87.64 191.58L87.64 191.58Q85.83 191.58 82.81 188.36L82.81 188.36Q79.80 185.35 65.53 172.68L65.53 172.68Q64.32 171.68 63.32 170.67L63.32 170.67L63.32 170.27L84.62 171.88L84.82 171.88Q90.65 163.04 88.44 142.94L88.44 142.94Q87.84 137.91 86.83 133.89L86.83 133.89Q60.50 136.30 44.22 139.32L44.22 139.32L26.53 143.14Q25.53 143.14 24.72 143.34L24.72 143.34Q19.30 143.94 14.27 140.12L14.27 140.12Q12.46 138.92 10.85 137.11L10.85 137.11Q10.85 134.90 11.66 134.90L11.66 134.90L85.43 128.06Q85.02 125.05 80.20 120.83L80.20 120.83L77.39 118.21L77.39 113.79Q81.00 113.79 87.44 118.01L87.44 118.01Q88.44 118.61 89.24 119.02L89.24 119.02L102.31 101.53Q102.31 98.92 100.50 98.11L100.50 98.11Q87.23 99.92 67.34 107.76L67.34 107.76Q58.29 107.76 55.48 102.94L55.48 102.94Q54.87 101.93 54.87 100.73L54.87 100.73L55.28 100.12L56.28 99.52Q69.14 100.73 86.63 95.10L86.63 95.10L93.67 92.69L94.07 92.69L102.51 90.27Q102.91 90.27 103.11 90.27L103.11 90.27Q109.14 89.87 117.38 97.11L117.38 97.11Q118.59 98.11 119.80 99.52L119.80 99.52L120.00 102.13Q119.19 103.14 114.57 104.95L114.57 104.95L113.36 105.55Q103.52 110.37 92.06 120.42L92.06 120.42Q93.47 120.83 95.07 124.85L95.07 124.85Q96.68 128.46 100.10 126.45L100.10 126.45L147.53 119.62Q154.77 118.61 162.21 121.63L162.21 121.63Q169.84 124.64 170.85 129.87L170.85 129.87Q170.85 130.47 170.85 131.28Z" stroke="#000" fill="black" /></svg>