<svg width="201" height="201" version="1.1" xmlns="http://www.w3.org/2000/svg" xmlns:xlink="http://www.w3.org/1999/xlink"><path d="M178.89 72.80L178.89 72.80Q178.89 74.81 176.48 75.62L176.48 75.62Q141.30 75.62 111.76 81.45L111.76 81.45L87.03 87.88L86.83 87.88Q83.21 88.48 79.40 86.47L79.40 86.47Q77.18 85.27 75.78 83.26L75.78 83.26L76.18 82.25L117.99 75.62L118.19 64.16L106.73 64.96L102.11 64.16Q100.10 63.36 98.49 61.95L98.49 61.95Q98.69 60.34 100.70 59.94L100.70 59.94Q101.71 59.74 117.99 57.53L117.99 57.53L118.19 46.27L102.31 48.68Q94.67 49.09 93.06 44.86L93.06 44.86Q94.87 44.26 111.35 40.84L111.35 40.84Q114.97 40.24 117.59 39.44L117.59 39.44Q117.59 28.38 113.36 20.54L113.36 20.54Q112.76 15.52 123.21 19.34L123.21 19.34Q126.63 20.54 127.84 21.55L127.84 21.55Q131.05 23.96 128.64 32.40L128.64 32.40L127.84 35.22Q127.84 35.62 127.43 36.42L127.43 36.42Q129.24 36.62 137.08 33.41L137.08 33.41Q147.53 28.99 153.77 34.01L153.77 34.01Q153.77 38.03 133.26 42.25L133.26 42.25L127.23 43.66L126.23 54.31L139.09 51.30Q145.12 50.69 148.14 54.31L148.14 54.31Q148.14 56.92 143.92 57.73L143.92 57.73Q136.68 59.54 126.03 61.55L126.03 61.55Q125.22 67.38 125.22 74.01L125.22 74.01Q127.23 74.61 157.99 68.18L157.99 68.18Q163.61 66.97 165.83 66.57L165.83 66.57Q170.05 65.97 175.47 69.59L175.47 69.59Q177.68 71.20 178.89 72.80ZM155.78 95.11L155.78 95.11Q155.78 96.72 153.16 101.55L153.16 101.55L152.56 102.95Q151.15 107.98 151.15 115.01L151.15 115.01L152.56 135.92Q152.56 146.37 146.13 152.00L146.13 152.00Q143.31 152.00 141.30 147.58L141.30 147.58Q140.30 144.96 139.70 144.16L139.70 144.16L139.49 141.95Q119.80 142.35 102.71 145.36L102.71 145.36Q99.50 153.00 96.28 145.77L96.28 145.77Q94.27 141.75 94.27 137.93L94.27 137.93Q94.27 137.32 95.88 131.29L95.88 131.29Q99.09 121.45 96.68 105.97L96.68 105.97Q95.48 97.93 93.06 92.90L93.06 92.90Q95.48 91.50 100.50 94.51L100.50 94.51Q101.10 94.91 101.51 95.11L101.51 95.11Q117.59 92.50 126.03 90.09L126.03 90.09L137.69 86.47Q143.51 85.67 153.56 93.31L153.56 93.31Q154.57 94.11 155.78 95.11ZM140.10 137.12L140.10 137.12Q142.11 104.76 139.09 96.92L139.09 96.92Q137.89 93.71 133.87 93.71L133.87 93.71L105.32 99.54L104.72 107.17Q104.92 108.18 105.12 108.78L105.12 108.78Q107.74 108.78 117.99 105.77L117.99 105.77Q127.23 102.95 132.66 106.57L132.66 106.57Q132.66 108.78 131.66 109.39L131.66 109.39Q126.43 112.80 107.54 113.81L107.54 113.81Q105.73 114.01 104.52 114.01L104.52 114.01L104.52 124.06Q107.54 124.06 117.59 121.04L117.59 121.04Q122.41 119.64 125.83 119.64L125.83 119.64Q130.65 119.64 133.06 121.85L133.06 121.85L133.67 123.25Q133.67 124.06 132.26 125.06L132.26 125.06Q128.44 127.48 105.12 128.48L105.12 128.48L104.32 139.13L125.42 134.71Q136.68 133.30 140.10 137.12ZM156.58 172.70L156.58 172.70Q158.39 182.35 156.98 184.96L156.98 184.96L155.57 186.77Q154.17 187.78 151.55 187.78L151.55 187.78Q148.34 184.56 141.10 173.50L141.10 173.50Q139.49 171.09 138.29 169.48L138.29 169.48L129.04 157.63Q129.04 154.81 129.65 153.61L129.65 153.61Q145.32 161.04 150.55 165.87L150.55 165.87Q154.17 168.88 156.58 172.70ZM79.19 116.22L79.19 116.22L75.78 116.02Q74.37 115.21 65.12 107.38L65.12 107.38Q61.91 104.56 59.09 102.95L59.09 102.95L58.89 171.29Q58.89 174.11 55.88 177.12L55.88 177.12L53.47 176.72Q46.23 167.88 46.23 158.03L46.23 158.03Q46.23 157.63 47.64 150.59L47.64 150.59Q47.84 150.19 47.84 149.59L47.84 149.59Q48.24 144.76 51.05 103.15L51.05 103.15Q51.26 99.13 51.46 95.72L51.46 95.72Q34.77 128.88 8.24 148.78L8.24 148.78L6.03 148.78L6.03 147.17Q32.76 114.21 43.42 93.10L43.42 93.10Q45.83 88.48 47.84 83.86L47.84 83.86Q46.03 83.66 26.53 90.69L26.53 90.69Q23.12 92.10 21.91 92.30L21.91 92.30Q17.89 93.31 12.06 90.69L12.06 90.69Q9.45 89.49 8.04 87.88L8.04 87.88Q8.04 85.67 9.25 84.66L9.25 84.66L22.11 82.25Q32.16 80.24 51.66 75.01L51.66 75.01Q52.26 67.78 51.26 60.74L51.26 60.74Q50.85 56.92 49.85 53.11L49.85 53.11Q48.04 53.51 38.19 57.33L38.19 57.33Q34.57 58.73 31.76 59.14L31.76 59.14L31.56 59.34L30.95 58.73L31.56 57.53L48.84 45.47Q55.88 40.04 59.70 34.21L59.70 34.21L60.10 31.60Q60.50 30.59 61.31 30.39L61.31 30.39L72.96 33.41Q76.98 34.81 79.19 37.43L79.19 37.43Q79.40 38.83 78.39 39.64L78.39 39.64Q77.99 39.84 77.39 40.24L77.39 40.24Q60.50 47.48 55.28 50.29L55.28 50.29L60.50 54.51Q61.10 55.12 61.51 55.72L61.51 55.72L60.10 71.80L70.75 70.59Q77.99 70.59 77.99 75.42L77.99 75.42Q76.38 76.22 64.12 78.83L64.12 78.83Q61.91 79.24 60.10 79.84L60.10 79.84Q59.09 87.68 59.09 98.53L59.09 98.53Q71.15 100.94 72.96 101.75L72.96 101.75Q79.60 104.36 80.80 109.39L80.80 109.39Q81.20 110.79 81.20 112.40L81.20 112.40Q81.20 114.61 79.19 116.22ZM115.58 156.02L115.58 156.02Q115.58 161.24 97.48 173.71L97.48 173.71Q80.40 185.36 74.17 185.77L74.17 185.77L68.14 185.77L88.44 170.69Q99.50 161.44 103.11 151.60L103.11 151.60L107.94 151.60L114.97 155.62Q115.37 155.82 115.58 156.02Z" stroke="#000" fill="black" /></svg>